<?xml version="1.0" encoding="UTF-8"?>
<svg width="80px" height="12px" viewBox="0 0 80 12" version="1.1" xmlns="http://www.w3.org/2000/svg" xmlns:xlink="http://www.w3.org/1999/xlink">
    <!-- Generator: Sketch 63.1 (92452) - https://sketch.com -->
    <title>LLYD_Logo_CMYK_K</title>
    <desc>Created with Sketch.</desc>
    <defs>
        <polygon id="path-1" points="0.0142011834 0.182137048 79.8775955 0.182137048 79.8775955 11.3467456 0.0142011834 11.3467456"></polygon>
    </defs>
    <g id="lillydoo-logi-white" stroke="none" stroke-width="1" fill="none" fill-rule="evenodd" opacity="1">
        <g id="lillydoo-logi-white-child" transform="translate(-42.000000, -15.000000)">
            <g id="LLYD_Logo_CMYK_K" transform="translate(42.000000, 15.000000)">
                <g id="Group-6">
                    <mask id="mask-2" fill="white">
                        <use xlink:href="#path-1"></use>
                    </mask>
                    <g id="Clip-2"></g>
                    <path d="M51.0669822,1.2764497 L51.1647337,1.27573964 C51.2970414,1.2747929 51.4281657,1.27384615 51.5581065,1.27384615 C51.9869822,1.27384615 52.4937278,1.28213018 53.0007101,1.34366864 C54.6494675,1.5443787 55.751716,2.56710059 56.0253254,4.14934911 C56.2030769,5.17112426 56.2314793,6.20781065 56.107929,7.14792899 C55.8783432,8.88118343 54.7069822,9.98769231 52.8942012,10.1831953 C52.5431953,10.2215385 52.1692308,10.2392899 51.7171598,10.2392899 C51.3959763,10.2392899 51.076213,10.2307692 50.7372781,10.2213018 L50.7043787,10.2205917 C50.4274556,10.2132544 50.1410651,10.2056805 49.8551479,10.2033136 L49.8551479,1.26698225 C50.0624852,1.27455621 50.3053254,1.2783432 50.616568,1.2783432 C50.7566864,1.2783432 50.9062722,1.27763314 51.0669822,1.2764497 Z M53.5349112,0.497988166 C52.5185799,0.355976331 51.484497,0.336568047 50.5185799,0.336568047 C50.2769231,0.336568047 50.0366864,0.337751479 49.7973964,0.339171598 L49.7680473,0.339408284 C49.5100592,0.341065089 49.2485207,0.342485207 48.9857988,0.342485207 C48.4440237,0.342485207 48.0108876,0.335147929 47.6222485,0.319053254 L47.4222485,0.310295858 L47.4170414,0.544378698 C47.412071,0.729230769 47.4073373,0.92 47.5519527,1.06769231 C47.7164497,1.23597633 48.0144379,1.29656805 48.7289941,1.30532544 L48.7289941,10.2194083 L48.0359763,10.2191716 C47.9985799,10.2191716 47.9640237,10.2184615 47.9140828,10.2170414 L47.8568047,10.216568 C47.7263905,10.216568 47.5900592,10.2250888 47.4859172,10.3271006 C47.3971598,10.4134911 47.3578698,10.5401183 47.3578698,10.7377515 C47.3578698,10.9325444 47.3578698,11.2267456 47.6163314,11.2267456 C47.955503,11.2267456 48.3091124,11.2340828 48.7360947,11.2435503 C49.1261538,11.2523077 49.6598817,11.2639053 50.1943195,11.2639053 C51.1112426,11.2639053 51.9027219,11.2298225 52.6854438,11.1564497 C55.3150296,10.9072189 56.7140828,9.7183432 57.0885207,7.41514793 C57.2492308,6.42792899 57.2319527,5.2764497 57.0369231,3.99266272 C56.7410651,2.04118343 55.4646154,0.767573964 53.5349112,0.497988166 L53.5349112,0.497988166 Z" id="Fill-1" fill="#FFFFFF" mask="url(#mask-2)"></path>
                    <path d="M67.516213,6.00615385 C67.4885207,6.16804734 67.464142,6.34177515 67.4383432,6.52544379 L67.431716,6.57254438 C67.3663905,7.04591716 67.292071,7.58248521 67.1389349,8.08544379 C66.6752663,9.60189349 65.5628402,10.3389349 63.7386982,10.3389349 L63.6691124,10.3384615 C62.0087574,10.3216568 60.8584615,9.49680473 60.4300592,8.01538462 C60.0011834,6.53183432 60.0080473,5.03384615 60.4511243,3.56260355 C60.9344379,1.95857988 62.0546746,1.17893491 63.8752663,1.17893491 C64.0213018,1.17893491 64.1727811,1.18414201 64.3252071,1.19408284 C65.8790533,1.29491124 66.9981065,2.42390533 67.3192899,4.21443787 C67.3836686,4.57065089 67.4172781,4.94366864 67.4525444,5.33869822 L67.4534911,5.34934911 C67.4702959,5.53846154 67.4904142,5.76094675 67.516213,6.00615385 Z M64.2631953,0.19147929 C61.9588166,0.0797633136 60.3597633,0.972071006 59.6584615,2.75621302 C59.3976331,3.42035503 59.2508876,4.13136095 59.1081657,4.82366864 C59.0489941,5.11100592 58.9820118,5.43621302 58.9076923,5.74295858 C58.884497,5.83905325 58.936568,5.93633136 59.0274556,5.97136095 L59.0691124,6.32047337 C59.0986982,6.64923077 59.1292308,6.9895858 59.175858,7.32426036 C59.4468639,9.28946746 60.6267456,10.688284 62.4130178,11.1621302 C62.9031953,11.2923077 63.3957396,11.3583432 63.8769231,11.3583432 C65.9315976,11.3583432 67.5786982,10.1853254 68.1760947,8.29704142 C68.7053254,6.62153846 68.6942012,4.90698225 68.1427219,3.20094675 C67.5713609,1.43621302 66.0847337,0.283076923 64.2631953,0.19147929 L64.2631953,0.19147929 Z" id="Fill-3" fill="#FFFFFF" mask="url(#mask-2)"></path>
                    <path d="M78.8310059,5.9687574 C78.8,6.15384615 78.7725444,6.36071006 78.7488757,6.54343195 C78.6852071,7.01893491 78.6134911,7.55786982 78.4648521,8.06011834 C78.0168047,9.57254438 76.8854438,10.3394083 75.1015385,10.3394083 L75.0731361,10.3394083 C73.3280473,10.332071 72.2111243,9.55905325 71.7531361,8.0416568 C71.3540828,6.72378698 71.3242604,5.34272189 71.6650888,3.93704142 C72.1226036,2.05538462 73.2378698,1.17893491 75.1751479,1.17893491 C75.2575148,1.17893491 75.343432,1.1808284 75.4302959,1.18414201 C77.1431953,1.24828402 78.312426,2.36378698 78.6385799,4.24426036 C78.6977515,4.58508876 78.7299408,4.93088757 78.7673373,5.33136095 L78.7708876,5.3652071 C78.7867456,5.53846154 78.8066272,5.74556213 78.8310059,5.9687574 Z M79.4684024,3.22343195 C78.8911243,1.42911243 77.3853254,0.266745562 75.5386982,0.190059172 C75.4288757,0.18556213 75.3192899,0.183195266 75.2123077,0.183195266 C73.0804734,0.183195266 71.607574,1.08449704 70.9528994,2.78934911 C70.6991716,3.44639053 70.56,4.14627219 70.4255621,4.82248521 L70.4123077,4.88686391 C70.3566864,5.16236686 70.2994083,5.44733728 70.2345562,5.72260355 C70.2137278,5.81159763 70.2648521,5.90769231 70.3521893,5.94816568 L70.3817751,6.27431953 C70.4097041,6.58982249 70.4414201,6.94745562 70.4880473,7.29893491 C70.7450888,9.26295858 71.9173964,10.6674556 73.7039053,11.1528994 C74.2132544,11.2908876 74.7216568,11.3609467 75.2156213,11.3609467 C77.351716,11.3609467 79.027929,10.0570414 79.5893491,7.95810651 C80.0106509,6.37940828 79.9699408,4.78650888 79.4684024,3.22343195 L79.4684024,3.22343195 Z" id="Fill-4" fill="#FFFFFF" mask="url(#mask-2)"></path>
                    <path d="M8.00142012,8.58650888 C7.9183432,8.50059172 7.79242604,8.46414201 7.58011834,8.46414201 C7.46461538,8.46414201 7.11289941,8.46414201 7.11289941,8.75337278 L7.11289941,10.2390533 L2.52307692,10.2390533 L2.52307692,1.25893491 L2.88662722,1.25751479 C2.97775148,1.25751479 3.09798817,1.25775148 3.21822485,1.26106509 C3.42840237,1.26579882 3.46059172,1.2660355 3.52189349,1.2660355 L3.57278107,1.2660355 C3.7043787,1.2660355 3.81349112,1.2035503 3.87976331,1.0904142 C3.93822485,0.991242604 3.95053254,0.873609467 3.95053254,0.792426036 C3.95053254,0.603786982 3.8783432,0.323076923 3.67976331,0.323076923 L0.113372781,0.323076923 L0.08,0.432426036 C0.0582248521,0.506035503 -0.0423668639,0.884733728 0.121420118,1.10532544 C0.193609467,1.20236686 0.30295858,1.25372781 0.437633136,1.25372781 C0.572781065,1.25372781 0.70295858,1.25704142 0.872189349,1.26177515 C1.02579882,1.26579882 1.19195266,1.27005917 1.38579882,1.27195266 L1.38579882,10.2397633 L1.03692308,10.2404734 C0.925207101,10.2404734 0.816094675,10.2397633 0.70556213,10.2385799 L0.300591716,10.2373964 C0.163313609,10.2373964 0,10.32 0,10.7143195 C0,10.8383432 0,11.2168047 0.248994083,11.2168047 L8.0904142,11.2168047 L8.0904142,11.0118343 C8.0904142,10.8577515 8.08923077,10.7053254 8.08828402,10.5543195 L8.08733728,10.4175148 C8.08213018,9.73609467 8.08449704,9.2156213 8.09467456,8.87147929 C8.09869822,8.74863905 8.06816568,8.6556213 8.00142012,8.58650888" id="Fill-5" fill="#FFFFFF" mask="url(#mask-2)"></path>
                </g>
                <path d="M13.3095858,1.28 C13.5507692,1.28 13.7110059,1.27786982 13.8291124,1.27313609 C14.0667456,1.26295858 14.1869822,1.08071006 14.1869822,0.731360947 C14.1869822,0.329940828 13.923787,0.318343195 13.8937278,0.318343195 L10.5981065,0.318343195 C10.460355,0.318343195 10.3739645,0.378698225 10.3256805,0.429585799 C10.244497,0.515739645 10.207574,0.636213018 10.2160947,0.786508876 C10.2160947,1.08047337 10.4026036,1.26295858 10.7024852,1.26295858 C10.9498225,1.26295858 11.1756213,1.2712426 11.3746746,1.27857988 C11.4669822,1.28236686 11.5547929,1.28544379 11.6376331,1.28757396 L11.6376331,10.2880473 L10.5185799,10.2880473 C10.2160947,10.2880473 10.2160947,10.6151479 10.2160947,10.7547929 C10.2160947,11.1462722 10.435503,11.2016568 10.6267456,11.2059172 C11.2286391,11.2201183 11.8842604,11.2220118 12.3884024,11.2220118 L14.1344379,11.2198817 L14.1332544,10.5249704 C14.1332544,10.2892308 13.8750296,10.2892308 13.6250888,10.2892308 C13.5429586,10.2892308 13.4489941,10.2906509 13.3342012,10.2925444 C13.2175148,10.2944379 13.0939645,10.295858 12.9786982,10.295858 C12.8963314,10.295858 12.8269822,10.2951479 12.7680473,10.2934911 L12.7680473,1.2783432 L13.3095858,1.28 L13.3095858,1.28 Z" id="Fill-7" fill="#FFFFFF"></path>
                <path d="M25.1822485,8.58650888 C25.0994083,8.50059172 24.9734911,8.46414201 24.7611834,8.46414201 C24.6456805,8.46414201 24.2942012,8.46414201 24.2942012,8.75337278 L24.2942012,10.2390533 L19.704142,10.2390533 L19.704142,1.25893491 L20.0676923,1.25751479 C20.1588166,1.25751479 20.2790533,1.25775148 20.3992899,1.26106509 C20.6094675,1.26579882 20.6416568,1.2660355 20.7029586,1.2660355 L20.7538462,1.2660355 C20.8854438,1.2660355 20.9945562,1.20331361 21.0608284,1.08994083 C21.1192899,0.991242604 21.1315976,0.873609467 21.1315976,0.792426036 C21.1315976,0.603786982 21.0594083,0.323076923 20.8610651,0.323076923 L17.2944379,0.323076923 L17.2615385,0.431005917 C17.2560947,0.448757396 17.1285207,0.870532544 17.3024852,1.10556213 C17.3749112,1.20236686 17.4842604,1.25372781 17.6186982,1.25372781 C17.7536095,1.25372781 17.883787,1.25704142 18.0532544,1.26177515 C18.2068639,1.26579882 18.3730178,1.27005917 18.5668639,1.27195266 L18.5668639,10.2397633 L18.2179882,10.2404734 C18.1062722,10.2404734 17.9973964,10.2397633 17.8866272,10.2385799 L17.4814201,10.2373964 C17.3446154,10.2373964 17.1813018,10.32 17.1813018,10.7143195 C17.1813018,10.8383432 17.1813018,11.2168047 17.4302959,11.2168047 L25.2714793,11.2168047 L25.2714793,11.0118343 C25.2714793,10.8430769 25.2702959,10.6771598 25.2688757,10.5121893 L25.2684024,10.4175148 C25.2631953,9.73609467 25.2657988,9.2156213 25.2757396,8.87147929 C25.2797633,8.74863905 25.2489941,8.65538462 25.1822485,8.58650888" id="Fill-8" fill="#FFFFFF"></path>
                <path d="M35.4168047,8.58650888 C35.3339645,8.50059172 35.2078107,8.46414201 34.995503,8.46414201 C34.8802367,8.46414201 34.5285207,8.46414201 34.5285207,8.75337278 L34.5285207,10.2390533 L29.9386982,10.2390533 L29.9386982,1.25893491 L30.3020118,1.25751479 C30.3933728,1.25751479 30.5133728,1.25775148 30.6338462,1.26106509 C30.8440237,1.26579882 30.876213,1.2660355 30.9375148,1.2660355 L30.9884024,1.2660355 C31.12,1.2660355 31.2291124,1.20331361 31.2953846,1.08994083 C31.3538462,0.991242604 31.3661538,0.873609467 31.3661538,0.792426036 C31.3661538,0.603786982 31.2939645,0.323076923 31.0953846,0.323076923 L27.5289941,0.323076923 L27.4956213,0.432426036 C27.4738462,0.506035503 27.3732544,0.884497041 27.5370414,1.10532544 C27.6092308,1.20236686 27.7185799,1.25372781 27.8532544,1.25372781 C27.987929,1.25372781 28.1183432,1.25704142 28.2880473,1.26177515 C28.4416568,1.26579882 28.607574,1.27005917 28.8014201,1.27195266 L28.8014201,10.2397633 L28.4525444,10.2404734 C28.3405917,10.2404734 28.231716,10.2397633 28.1211834,10.2385799 L27.716213,10.2373964 C27.5789349,10.2373964 27.415858,10.32 27.415858,10.7143195 C27.415858,10.8383432 27.415858,11.2168047 27.6646154,11.2168047 L35.5060355,11.2168047 L35.5060355,11.0118343 C35.5060355,10.856568 35.5048521,10.7031953 35.5036686,10.5505325 L35.5029586,10.4175148 C35.4979882,9.72757396 35.500355,9.20733728 35.5102959,8.87171598 C35.5143195,8.74863905 35.4835503,8.65538462 35.4168047,8.58650888" id="Fill-9" fill="#FFFFFF"></path>
                <path d="M45.3578698,0.348402367 C44.9642604,0.333727811 44.5313609,0.33183432 44.1597633,0.33183432 L43.1718343,0.333727811 C43.0239053,0.333727811 42.8802367,0.333491124 42.7346746,0.332071006 C42.3408284,0.332071006 42.3408284,0.670295858 42.3408284,0.814674556 C42.3408284,0.966390533 42.3659172,1.07360947 42.4205917,1.15147929 C42.4771598,1.23266272 42.5611834,1.27739645 42.6577515,1.27739645 L43.5233136,1.27668639 C43.0866272,1.99408284 42.6515976,2.70177515 42.2305325,3.38674556 L42.0331361,3.70792899 C41.6085207,4.39857988 41.1694675,5.11242604 40.7263905,5.84047337 C40.3375148,5.18911243 39.9249704,4.47076923 39.5256805,3.7756213 L39.4908876,3.71526627 C38.9448521,2.76426036 38.4286391,1.86485207 38.071716,1.30982249 L38.7218935,1.30792899 C39.1192899,1.30792899 39.1192899,0.936331361 39.1192899,0.814201183 C39.1192899,0.695621302 39.1192899,0.334674556 38.8369231,0.334674556 C38.4655621,0.334674556 38.0960947,0.335621302 37.7230769,0.336568047 L37.5100592,0.337278107 C37.0530178,0.339171598 36.5898225,0.340591716 36.1107692,0.340591716 C35.7973964,0.340591716 35.7973964,0.576568047 35.7973964,0.784615385 C35.7973964,0.955739645 35.7973964,1.31147929 36.1926627,1.31147929 L36.4807101,1.30982249 C36.6901775,1.30982249 36.7271006,1.3216568 36.7273373,1.3216568 C36.791716,1.34887574 37.0726627,1.67242604 37.403787,2.22011834 L37.9569231,3.1356213 C38.612071,4.21940828 39.2894675,5.33964497 39.9521893,6.44449704 L40.0049704,6.5304142 C40.0849704,6.6608284 40.1680473,6.79573964 40.1704142,6.89751479 C40.1860355,7.77538462 40.1839053,8.64047337 40.1822485,9.47739645 L40.1810651,10.2752663 C39.9786982,10.275503 39.5334911,10.2766864 39.2608284,10.2804734 C38.8998817,10.2863905 38.7718343,10.4151479 38.7718343,10.7730178 C38.7718343,11.208284 39.0402367,11.2210651 39.0707692,11.2210651 C39.5706509,11.2210651 40.1287574,11.2217751 40.687574,11.2227219 L42.3128994,11.2243787 C42.3978698,11.2243787 42.5209467,11.2142012 42.6094675,11.1252071 C42.7048521,11.0284024 42.7027219,10.9010651 42.7010651,10.7985799 L42.7005917,10.7578698 C42.7005917,10.3462722 42.452071,10.3143195 42.376568,10.3143195 L41.2359763,10.2795266 L41.2347929,9.52047337 C41.2331361,8.64236686 41.231716,7.81278107 41.2468639,6.94508876 C41.2497041,6.81798817 41.3474556,6.65325444 41.4350296,6.50556213 L41.447574,6.48449704 C41.8620118,5.79266272 42.3091124,5.09136095 42.703432,4.47289941 C43.167574,3.74579882 43.7450888,2.84047337 44.2418935,1.98272189 C44.5931361,1.3756213 44.6721893,1.27289941 44.7311243,1.27289941 L44.7988166,1.27550296 C44.896568,1.27976331 45.031716,1.27786982 45.1943195,1.27550296 L45.2319527,1.27502959 C45.3008284,1.27431953 45.3661538,1.27360947 45.4208284,1.27360947 C45.5143195,1.27360947 45.5756213,1.23218935 45.6106509,1.19739645 C45.7022485,1.10461538 45.7010651,0.976568047 45.6991716,0.814201183 L45.6989349,0.740118343 C45.6989349,0.506272189 45.568284,0.355976331 45.3578698,0.348402367" id="Fill-10" fill="#FFFFFF"></path>
            </g>
        </g>
    </g>
</svg>
